PathFileType	4	(X/Y/Z)	E:\Qualisys_Data\Carbon_Farble_Plate\Data\Amateur_Runner\S2\T3\S2T3V13_c3d.trc
DataRate	CameraRate	NumFrames	NumMarkers	Units	OrigDataRate	OrigDataStartFrame	OrigNumFrames
200.000000	200.000000	4	39	mm	200.000000	234	312
Frame#	Time	LSHO			RSHO			LICST			RICST			LASIS			LHEEL			RASIS			LTROC			RTROC			SACR			LTH1			LSK4			LTH2			LTH3			RHM5			LSK2			LTH4			RTH1			LTOE			RTH2			RTH3			RTH4			LLEP			RLEP			LSK1			LSK3			RSK1			LHM5			RSK2			LFT1			RSK3			RSK4			LLME			RLME			RTOE			RHEEL			RFT1			RFT2			LFT2			
		X1	Y1	Z1	X2	Y2	Z2	X3	Y3	Z3	X4	Y4	Z4	X5	Y5	Z5	X6	Y6	Z6	X7	Y7	Z7	X8	Y8	Z8	X9	Y9	Z9	X10	Y10	Z10	X11	Y11	Z11	X12	Y12	Z12	X13	Y13	Z13	X14	Y14	Z14	X15	Y15	Z15	X16	Y16	Z16	X17	Y17	Z17	X18	Y18	Z18	X19	Y19	Z19	X20	Y20	Z20	X21	Y21	Z21	X22	Y22	Z22	X23	Y23	Z23	X24	Y24	Z24	X25	Y25	Z25	X26	Y26	Z26	X27	Y27	Z27	X28	Y28	Z28	X29	Y29	Z29	X30	Y30	Z30	X31	Y31	Z31	X32	Y32	Z32	X33	Y33	Z33	X34	Y34	Z34	X35	Y35	Z35	X36	Y36	Z36	X37	Y37	Z37	X38	Y38	Z38	X39	Y39	Z39	

235	1.17	1136.369384765625	1474.468505859375	-484.2308654785156	1223.507934570312	1454.693359375	-186.0384521484375	1120.618896484375	1011.989379882812	-459.8328247070312	1161.026000976562	1001.03369140625	-163.4183502197266	1182.406127929688	964.3271484375	-445.3199462890625	1226.468872070312	76.34503173828125	-328.7276611328125	1214.932739257812	951.4418334960938	-190.0811767578125	1060.907836914062	884.2648315429688	-460.3843688964844	1060.214111328125	912.9700927734376	-147.9099731445312	1045.55029296875	1047.9833984375	-297.33544921875	1248.610961914062	662.2484130859375	-471.0812377929688	1213.297485351562	275.845458984375	-425.0151672363281	1166.63037109375	638.7698364257812	-466.7063903808594	1275.629272460938	569.0614624023438	-433.3697509765625	604.4627685546875	233.1883850097656	-168.4180145263672	1205.587890625	373.0528869628906	-442.4226379394531	1193.19677734375	547.0521850585938	-433.6958618164062	1114.233276367188	629.9493408203125	-146.3178100585938	1462.838989257812	144.6044158935547	-371.6109619140625	1041.427490234375	653.7496337890625	-144.5401000976562	1084.428100585938	534.095703125	-155.9456481933594	1008.993774414062	561.1240844726562	-160.6708068847656	1241.576171875	513.2827758789062	-431.4710388183594	1018.725463867188	522.983154296875	-152.0174407958984	1283.54443359375	380.9085388183594	-433.0264892578125	1292.003784179688	282.0518188476562	-419.7607116699219	930.6613159179688	438.8873596191406	-147.8758392333984	1407.815551757812	95.31867218017578	-421.1676025390625	900.3892211914062	512.9920654296875	-149.8656005859375	1247.814453125	56.55210876464844	-298.1705627441406	837.0698852539062	399.119873046875	-158.7838287353516	810.091796875	473.2338256835938	-165.2580871582031	1279.001708984375	100.7835845947266	-387.9700012207031	652.1278076171875	361.5146484375	-194.9816741943359	633.684326171875	165.5214996337891	-215.9221649169922	644.1489868164062	413.6782531738281	-258.4545593261719	624.91015625	398.7890930175781	-292.01318359375	613.929443359375	415.9407348632812	-242.9583129882812	1240.254516601562	45.27431488037109	-350.6309509277344
236	1.175	1152.257568359375	1469.91259765625	-485.0460205078125	1238.825317382812	1450.7021484375	-186.6130828857422	1135.607543945312	1008.083068847656	-459.7994689941406	1176.783447265625	996.999267578125	-163.0403900146484	1197.903442382812	960.7428588867188	-445.6001586914062	1235.005249023438	77.5692138671875	-327.7674560546875	1230.588989257812	947.6363525390624	-190.0517425537109	1076.820922851562	879.9948120117188	-459.775390625	1076.628540039062	907.9343872070312	-146.9952850341797	1061.067749023438	1043.874755859375	-297.4642333984375	1264.4482421875	659.9133911132812	-468.3936462402344	1226.287841796875	272.1796264648438	-423.7696838378906	1184.323974609375	637.1693725585938	-463.8230895996094	1292.506225585938	566.6663818359375	-431.8874816894531	620.8113403320312	238.1874542236328	-168.1328887939453	1220.451049804688	369.8453369140625	-441.5263061523438	1210.322631835938	544.7168579101562	-432.2314147949219	1133.613891601562	624.8638305664062	-144.8788452148438	1473.8515625	136.0160827636719	-368.3844604492188	1060.879272460938	647.8517456054688	-143.6035919189453	1105.12646484375	528.190185546875	-153.8585968017578	1029.068603515625	554.8976440429688	-159.2921295166016	1258.733154296875	510.8526000976562	-430.2947692871094	1039.825805664062	517.2412719726562	-150.5284271240234	1298.413452148438	375.9404602050781	-431.75	1305.389770507812	277.4784851074219	-417.9357604980469	950.9173583984376	435.1315307617188	-146.8449096679688	1416.94384765625	88.85199737548828	-420.060546875	922.3319702148438	509.9833679199219	-149.0449523925781	1254.595092773438	56.45387649536133	-297.1845092773438	856.4974975585938	397.7995910644531	-158.2305297851562	831.6082153320312	472.672607421875	-164.4362487792969	1288.743286132812	96.73567199707033	-386.6627502441406	670.6740112304688	365.2996215820312	-195.0030975341797	648.2454223632812	170.0609283447266	-214.6542053222656	664.3674926757812	416.5262756347656	-258.4520263671875	644.8068237304688	402.5549926757812	-292.2605895996094	634.2196655273438	420.5834350585938	-243.5415649414062	1246.942504882812	46.83423614501953	-350.0729675292969
237	1.18	1168.174926757812	1464.995361328125	-485.9681701660156	1254.064819335938	1446.490356445312	-186.7016143798828	1150.48779296875	1004.274536132812	-459.6451110839844	1192.22607421875	992.7666015625	-162.8972778320312	1213.420166015625	957.0770263671876	-445.568115234375	1243.305419921875	75.81568145751953	-325.3838500976562	1246.215454101562	943.3358154296876	-190.2046966552734	1092.369384765625	875.7860107421875	-459.4159851074219	1093.299072265625	902.7344360351562	-146.3206787109375	1076.621215820312	1039.312377929688	-297.3797912597656	1281.3271484375	657.6590576171875	-465.7474975585938	1239.25244140625	268.6609802246094	-422.53173828125	1201.479736328125	635.1240234375	-460.322509765625	1309.278198242188	564.1412353515625	-430.0173645019531	637.3489990234375	243.2599487304688	-167.4490356445312	1234.998413085938	366.2684326171875	-440.3210144042969	1227.369262695312	542.247802734375	-431.3399353027344	1153.34423828125	619.7618408203125	-143.5219268798828	1483.210205078125	126.2753067016602	-365.3500061035156	1080.237060546875	641.4498291015625	-142.6144561767578	1126.228149414062	523.0029296875	-151.9792175292969	1050.076782226562	548.4450073242188	-158.1618194580078	1275.887084960938	507.6505432128906	-428.8335876464844	1061.33544921875	511.2757873535156	-148.5776519775391	1312.69775390625	371.2539672851562	-430.5867614746094	1318.122924804688	272.5769348144531	-416.4658813476562	971.1964721679688	430.6202392578125	-145.8447418212891	1425.71240234375	81.16328430175781	-416.9930419921875	944.6306762695312	506.4854736328125	-148.2405700683594	1261.352661132812	53.81211471557617	-295.1026000976562	875.6859130859375	395.970703125	-157.5208892822266	852.5599365234375	471.3323974609375	-163.9259796142578	1297.527465820312	92.31972503662108	-385.0834350585938	690.0728149414062	369.1352844238281	-195.0173950195312	663.9646606445312	174.2299346923828	-213.1898345947266	684.5142822265625	420.7565612792969	-257.9836120605469	664.1656494140625	405.1949462890625	-292.0698547363281	654.8191528320312	424.5138244628906	-244.5423431396484	1254.042602539062	45.66712188720703	-348.1127319335938
238	1.185	1184.181396484375	1460.028564453125	-486.9291687011719	1269.378173828125	1441.601684570312	-187.11669921875	1165.146362304688	999.885009765625	-459.2953796386719	1207.955444335938	987.8382568359376	-162.7336273193359	1228.689575195312	953.2666015625	-445.9963989257812	1250.59814453125	77.03905487060547	-322.0133972167969	1261.62939453125	938.9324340820312	-190.4422149658203	1107.809448242188	871.5093994140625	-459.3485412597656	1109.252685546875	897.0562744140625	-145.8021087646484	1091.884887695312	1034.4345703125	-296.8055419921875	1298.031860351562	655.2863159179688	-462.5924377441406	1251.608154296875	264.8547058105469	-421.561279296875	1218.320068359375	633.0159912109375	-457.5658874511719	1325.806518554688	561.150146484375	-428.5267639160156	654.9024658203125	248.4772491455078	-167.099365234375	1249.238037109375	362.528076171875	-439.5437316894531	1244.03515625	539.349365234375	-431.0608825683594	1173.35595703125	614.490234375	-142.1390075683594	1491.474243164062	114.0845184326172	-361.9556579589844	1099.672729492188	635.3055419921875	-141.6344451904297	1147.6728515625	517.3446044921875	-150.1907043457031	1071.063232421875	541.5045166015625	-157.1140747070312	1292.129150390625	504.4586791992188	-427.5703735351562	1083.131225585938	505.4681396484375	-146.9155883789062	1327.1005859375	366.1815490722656	-429.0829772949219	1330.529418945312	267.4659729003906	-414.7889404296875	991.8262329101562	426.3299865722656	-144.8080291748047	1431.505249023438	71.59322357177734	-413.4489135742188	967.1995239257812	502.7381896972656	-147.3496704101562	1266.997192382812	51.94052886962891	-292.6527099609375	895.572509765625	394.3933410644531	-156.7234344482422	874.4967651367188	470.1204833984375	-162.9210968017578	1304.27490234375	89.6765365600586	-384.2448120117188	710.0807495117188	372.6520080566406	-195.2313537597656	680.07666015625	178.1319274902344	-211.8334655761719	705.8244018554688	424.2676696777344	-259.6426391601562	685.2651977539062	408.26513671875	-292.8256530761719	676.216064453125	428.659423828125	-245.1716766357422	1258.133911132812	42.71189498901367	-344.2184143066406
